<svg height="1024" width="1024" xmlns="http://www.w3.org/2000/svg" xmlns:xlink="http://www.w3.org/1999/xlink" version="1.1" x="0px" y="0px" viewBox="0 0 100 100"><g><path d="M49.5,79.6c-8.4,0-16.4-3.6-22-9.8c-5.6-6.2-8.3-14.6-7.3-23c1.5-13.5,12.4-24.4,25.9-25.9c8.4-0.9,16.8,1.7,23,7.3 c6.3,5.6,9.9,13.6,9.9,22c0,4.5-1.1,9.1-3.1,13.1l2.9,8.7c0.4,1.3,0.1,2.7-0.8,3.6s-2.3,1.3-3.6,1l-8.1-2.2 C61.4,77.8,55.6,79.6,49.5,79.6z M49.6,24.7c-1,0-2,0.1-3,0.2c-11.7,1.3-21.1,10.7-22.4,22.4c-0.8,7.3,1.4,14.4,6.3,19.9 c4.8,5.4,11.8,8.5,19,8.5c5.3,0,10.3-1.6,14.6-4.6c0.9-0.6,2-0.8,3.1-0.5l7.5,2.1L72,64.4c-0.3-0.9-0.2-1.9,0.2-2.8 c1.8-3.5,2.7-7.5,2.7-11.5c0-7.2-3.1-14.2-8.5-19C61.7,26.9,55.8,24.7,49.6,24.7z M75.4,72.7L75.4,72.7L75.4,72.7z M75.8,63.1 L75.8,63.1C75.8,63.1,75.8,63.1,75.8,63.1z"></path></g><g><g><path d="M50,44.2H34.8c-1.1,0-2-0.9-2-2s0.9-2,2-2H50c1.1,0,2,0.9,2,2S51.1,44.2,50,44.2z"></path></g><g><path d="M62,51.9H34.8c-1.1,0-2-0.9-2-2s0.9-2,2-2H62c1.1,0,2,0.9,2,2S63.1,51.9,62,51.9z"></path></g><g><path d="M62,59.6H34.8c-1.1,0-2-0.9-2-2s0.9-2,2-2H62c1.1,0,2,0.9,2,2S63.1,59.6,62,59.6z"></path></g></g></svg>